<?xml version="1.0" encoding="us-ascii" standalone="no"?><svg xmlns="http://www.w3.org/2000/svg" xmlns:xlink="http://www.w3.org/1999/xlink" contentStyleType="text/css" height="806px" preserveAspectRatio="none" style="width:799px;height:806px;background:#FFFFFF;" version="1.1" viewBox="0 0 799 806" width="799px" zoomAndPan="magnify"><defs/><g><!--class Graph--><a href="" target="_top" title="A collection of nodes and edges" xlink:actuate="onRequest" xlink:href="" xlink:show="new" xlink:title="A collection of nodes and edges" xlink:type="simple"><g id="elem_Graph"><rect codeLine="1" fill="#F1F1F1" height="48" id="Graph" rx="2.5" ry="2.5" style="stroke:#181818;stroke-width:0.5;" width="74" x="316.94" y="7"/><ellipse cx="331.94" cy="23" fill="#ADD1B2" rx="11" ry="11" style="stroke:#181818;stroke-width:1.0;"/><path d="M334.9088,28.6406 Q334.3306,28.9375 333.69,29.0781 Q333.0494,29.2344 332.3463,29.2344 Q329.8463,29.2344 328.5181,27.5938 Q327.2056,25.9375 327.2056,22.8125 Q327.2056,19.6875 328.5181,18.0313 Q329.8463,16.375 332.3463,16.375 Q333.0494,16.375 333.69,16.5313 Q334.3463,16.6875 334.9088,16.9844 L334.9088,19.7031 Q334.2838,19.125 333.69,18.8594 Q333.0963,18.5781 332.4713,18.5781 Q331.1275,18.5781 330.44,19.6563 Q329.7525,20.7188 329.7525,22.8125 Q329.7525,24.9063 330.44,25.9844 Q331.1275,27.0469 332.4713,27.0469 Q333.0963,27.0469 333.69,26.7813 Q334.2838,26.5 334.9088,25.9219 L334.9088,28.6406 Z " fill="#000000"/><text fill="#000000" font-family="sans-serif" font-size="14" lengthAdjust="spacing" textLength="42" x="345.94" y="27.8467">Graph</text><line style="stroke:#181818;stroke-width:0.5;" x1="317.94" x2="389.94" y1="39" y2="39"/><line style="stroke:#181818;stroke-width:0.5;" x1="317.94" x2="389.94" y1="47" y2="47"/></g></a><!--class Node--><a href="" target="_top" title="A node/vertex in a graph" xlink:actuate="onRequest" xlink:href="" xlink:show="new" xlink:title="A node/vertex in a graph" xlink:type="simple"><g id="elem_Node"><rect codeLine="4" fill="#F1F1F1" height="113.1875" id="Node" rx="2.5" ry="2.5" style="stroke:#181818;stroke-width:0.5;" width="153" x="347.44" y="273.3"/><ellipse cx="401.19" cy="289.3" fill="#ADD1B2" rx="11" ry="11" style="stroke:#181818;stroke-width:1.0;"/><path d="M404.1588,294.9406 Q403.5806,295.2375 402.94,295.3781 Q402.2994,295.5344 401.5963,295.5344 Q399.0963,295.5344 397.7681,293.8937 Q396.4556,292.2375 396.4556,289.1125 Q396.4556,285.9875 397.7681,284.3312 Q399.0963,282.675 401.5963,282.675 Q402.2994,282.675 402.94,282.8312 Q403.5963,282.9875 404.1588,283.2844 L404.1588,286.0031 Q403.5338,285.425 402.94,285.1594 Q402.3463,284.8781 401.7213,284.8781 Q400.3775,284.8781 399.69,285.9562 Q399.0025,287.0187 399.0025,289.1125 Q399.0025,291.2062 399.69,292.2844 Q400.3775,293.3469 401.7213,293.3469 Q402.3463,293.3469 402.94,293.0812 Q403.5338,292.8 404.1588,292.2219 L404.1588,294.9406 Z " fill="#000000"/><text fill="#000000" font-family="sans-serif" font-size="14" lengthAdjust="spacing" textLength="37" x="421.69" y="294.1467">Node</text><line style="stroke:#181818;stroke-width:0.5;" x1="348.44" x2="499.44" y1="305.3" y2="305.3"/><text fill="#000000" font-family="sans-serif" font-size="14" lengthAdjust="spacing" textLength="90" x="353.44" y="322.2951">id : uriorcurie</text><text fill="#000000" font-family="sans-serif" font-size="14" lengthAdjust="spacing" textLength="91" x="353.44" y="338.592">name : string</text><text fill="#000000" font-family="sans-serif" font-size="14" lengthAdjust="spacing" textLength="112" x="353.44" y="354.8889">category : string</text><text fill="#000000" font-family="sans-serif" font-size="14" lengthAdjust="spacing" textLength="141" x="353.44" y="371.1857">aliases : string  [0..*]</text><line style="stroke:#181818;stroke-width:0.5;" x1="348.44" x2="499.44" y1="378.4875" y2="378.4875"/></g></a><!--class Edge--><a href="" target="_top" title="An edge/triple in a graph." xlink:actuate="onRequest" xlink:href="" xlink:show="new" xlink:title="An edge/triple in a graph." xlink:type="simple"><g id="elem_Edge"><rect codeLine="10" fill="#F1F1F1" height="64.2969" id="Edge" rx="2.5" ry="2.5" style="stroke:#181818;stroke-width:0.5;" width="129" x="401.44" y="132"/><ellipse cx="443.89" cy="148" fill="#ADD1B2" rx="11" ry="11" style="stroke:#181818;stroke-width:1.0;"/><path d="M446.8588,153.6406 Q446.2806,153.9375 445.64,154.0781 Q444.9994,154.2344 444.2963,154.2344 Q441.7963,154.2344 440.4681,152.5938 Q439.1556,150.9375 439.1556,147.8125 Q439.1556,144.6875 440.4681,143.0313 Q441.7963,141.375 444.2963,141.375 Q444.9994,141.375 445.64,141.5313 Q446.2963,141.6875 446.8588,141.9844 L446.8588,144.7031 Q446.2338,144.125 445.64,143.8594 Q445.0463,143.5781 444.4213,143.5781 Q443.0775,143.5781 442.39,144.6563 Q441.7025,145.7188 441.7025,147.8125 Q441.7025,149.9063 442.39,150.9844 Q443.0775,152.0469 444.4213,152.0469 Q445.0463,152.0469 445.64,151.7813 Q446.2338,151.5 446.8588,150.9219 L446.8588,153.6406 Z " fill="#000000"/><text fill="#000000" font-family="sans-serif" font-size="14" lengthAdjust="spacing" textLength="36" x="463.99" y="152.8467">Edge</text><line style="stroke:#181818;stroke-width:0.5;" x1="402.44" x2="529.44" y1="164" y2="164"/><text fill="#000000" font-family="sans-serif" font-size="14" lengthAdjust="spacing" textLength="117" x="407.44" y="180.9951">predicate : string</text><line style="stroke:#181818;stroke-width:0.5;" x1="402.44" x2="529.44" y1="188.2969" y2="188.2969"/></g></a><!--class Person--><a href="" target="_top" title="a person living or dead" xlink:actuate="onRequest" xlink:href="" xlink:show="new" xlink:title="a person living or dead" xlink:type="simple"><g id="elem_Person"><rect codeLine="13" fill="#F1F1F1" height="145.7813" id="Person" rx="2.5" ry="2.5" style="stroke:#181818;stroke-width:0.5;" width="255" x="103.44" y="463.48"/><ellipse cx="202.19" cy="479.48" fill="#ADD1B2" rx="11" ry="11" style="stroke:#181818;stroke-width:1.0;"/><path d="M205.1588,485.1206 Q204.5806,485.4175 203.94,485.5581 Q203.2994,485.7144 202.5963,485.7144 Q200.0963,485.7144 198.7681,484.0738 Q197.4556,482.4175 197.4556,479.2925 Q197.4556,476.1675 198.7681,474.5113 Q200.0963,472.855 202.5963,472.855 Q203.2994,472.855 203.94,473.0113 Q204.5963,473.1675 205.1588,473.4644 L205.1588,476.1831 Q204.5338,475.605 203.94,475.3394 Q203.3463,475.0581 202.7213,475.0581 Q201.3775,475.0581 200.69,476.1363 Q200.0025,477.1988 200.0025,479.2925 Q200.0025,481.3863 200.69,482.4644 Q201.3775,483.5269 202.7213,483.5269 Q203.3463,483.5269 203.94,483.2613 Q204.5338,482.98 205.1588,482.4019 L205.1588,485.1206 Z " fill="#000000"/><text fill="#000000" font-family="sans-serif" font-size="14" lengthAdjust="spacing" textLength="49" x="222.69" y="484.3267">Person</text><line style="stroke:#181818;stroke-width:0.5;" x1="104.44" x2="357.44" y1="495.48" y2="495.48"/><text fill="#000000" font-family="sans-serif" font-size="14" lengthAdjust="spacing" textLength="243" x="109.44" y="512.4751">professions : ProfessionType  [0..*]</text><text fill="#000000" font-family="sans-serif" font-size="14" lengthAdjust="spacing" textLength="94" x="109.44" y="528.772">born : integer</text><text fill="#000000" font-family="sans-serif" font-size="14" lengthAdjust="spacing" textLength="103" x="109.44" y="545.0689">id(i) : uriorcurie</text><text fill="#000000" font-family="sans-serif" font-size="14" lengthAdjust="spacing" textLength="104" x="109.44" y="561.3657">name(i) : string</text><text fill="#000000" font-family="sans-serif" font-size="14" lengthAdjust="spacing" textLength="125" x="109.44" y="577.6626">category(i) : string</text><text fill="#000000" font-family="sans-serif" font-size="14" lengthAdjust="spacing" textLength="154" x="109.44" y="593.9595">aliases(i) : string  [0..*]</text><line style="stroke:#181818;stroke-width:0.5;" x1="104.44" x2="357.44" y1="601.2613" y2="601.2613"/></g></a><!--class CreativeWork--><a href="" target="_top" title="A creative work like a movie" xlink:actuate="onRequest" xlink:href="" xlink:show="new" xlink:title="A creative work like a movie" xlink:type="simple"><g id="elem_CreativeWork"><rect codeLine="21" fill="#F1F1F1" height="113.1875" id="CreativeWork" rx="2.5" ry="2.5" style="stroke:#181818;stroke-width:0.5;" width="166" x="393.94" y="479.78"/><ellipse cx="428.29" cy="495.78" fill="#ADD1B2" rx="11" ry="11" style="stroke:#181818;stroke-width:1.0;"/><path d="M431.2588,501.4206 Q430.6806,501.7175 430.04,501.8581 Q429.3994,502.0144 428.6963,502.0144 Q426.1963,502.0144 424.8681,500.3738 Q423.5556,498.7175 423.5556,495.5925 Q423.5556,492.4675 424.8681,490.8113 Q426.1963,489.155 428.6963,489.155 Q429.3994,489.155 430.04,489.3113 Q430.6963,489.4675 431.2588,489.7644 L431.2588,492.4831 Q430.6338,491.905 430.04,491.6394 Q429.4463,491.3581 428.8213,491.3581 Q427.4775,491.3581 426.79,492.4363 Q426.1025,493.4988 426.1025,495.5925 Q426.1025,497.6863 426.79,498.7644 Q427.4775,499.8269 428.8213,499.8269 Q429.4463,499.8269 430.04,499.5613 Q430.6338,499.28 431.2588,498.7019 L431.2588,501.4206 Z " fill="#000000"/><text fill="#000000" font-family="sans-serif" font-size="14" lengthAdjust="spacing" textLength="91" x="446.59" y="500.6267">CreativeWork</text><line style="stroke:#181818;stroke-width:0.5;" x1="394.94" x2="558.94" y1="511.78" y2="511.78"/><text fill="#000000" font-family="sans-serif" font-size="14" lengthAdjust="spacing" textLength="103" x="399.94" y="528.7751">id(i) : uriorcurie</text><text fill="#000000" font-family="sans-serif" font-size="14" lengthAdjust="spacing" textLength="104" x="399.94" y="545.072">name(i) : string</text><text fill="#000000" font-family="sans-serif" font-size="14" lengthAdjust="spacing" textLength="125" x="399.94" y="561.3689">category(i) : string</text><text fill="#000000" font-family="sans-serif" font-size="14" lengthAdjust="spacing" textLength="154" x="399.94" y="577.6657">aliases(i) : string  [0..*]</text><line style="stroke:#181818;stroke-width:0.5;" x1="394.94" x2="558.94" y1="584.9675" y2="584.9675"/></g></a><!--class ActedIn--><a href="" target="_top" title="None" xlink:actuate="onRequest" xlink:href="" xlink:show="new" xlink:title="None" xlink:type="simple"><g id="elem_ActedIn"><rect codeLine="32" fill="#F1F1F1" height="64.2969" id="ActedIn" rx="2.5" ry="2.5" style="stroke:#181818;stroke-width:0.5;" width="142" x="546.94" y="297.74"/><ellipse cx="588.04" cy="313.74" fill="#ADD1B2" rx="11" ry="11" style="stroke:#181818;stroke-width:1.0;"/><path d="M591.0088,319.3806 Q590.4306,319.6775 589.79,319.8181 Q589.1494,319.9744 588.4463,319.9744 Q585.9463,319.9744 584.6181,318.3338 Q583.3056,316.6775 583.3056,313.5525 Q583.3056,310.4275 584.6181,308.7713 Q585.9463,307.115 588.4463,307.115 Q589.1494,307.115 589.79,307.2713 Q590.4463,307.4275 591.0088,307.7244 L591.0088,310.4431 Q590.3838,309.865 589.79,309.5994 Q589.1963,309.3181 588.5713,309.3181 Q587.2275,309.3181 586.54,310.3963 Q585.8525,311.4588 585.8525,313.5525 Q585.8525,315.6463 586.54,316.7244 Q587.2275,317.7869 588.5713,317.7869 Q589.1963,317.7869 589.79,317.5213 Q590.3838,317.24 591.0088,316.6619 L591.0088,319.3806 Z " fill="#000000"/><text fill="#000000" font-family="sans-serif" font-size="14" lengthAdjust="spacing" textLength="52" x="607.84" y="318.5867">ActedIn</text><line style="stroke:#181818;stroke-width:0.5;" x1="547.94" x2="687.94" y1="329.74" y2="329.74"/><text fill="#000000" font-family="sans-serif" font-size="14" lengthAdjust="spacing" textLength="130" x="552.94" y="346.7351">predicate(i) : string</text><line style="stroke:#181818;stroke-width:0.5;" x1="547.94" x2="687.94" y1="354.0369" y2="354.0369"/></g></a><!--class Directed--><a href="" target="_top" title="None" xlink:actuate="onRequest" xlink:href="" xlink:show="new" xlink:title="None" xlink:type="simple"><g id="elem_Directed"><rect codeLine="35" fill="#F1F1F1" height="64.2969" id="Directed" rx="2.5" ry="2.5" style="stroke:#181818;stroke-width:0.5;" width="142" x="159.94" y="297.74"/><ellipse cx="197.89" cy="313.74" fill="#ADD1B2" rx="11" ry="11" style="stroke:#181818;stroke-width:1.0;"/><path d="M200.8588,319.3806 Q200.2806,319.6775 199.64,319.8181 Q198.9994,319.9744 198.2963,319.9744 Q195.7963,319.9744 194.4681,318.3338 Q193.1556,316.6775 193.1556,313.5525 Q193.1556,310.4275 194.4681,308.7713 Q195.7963,307.115 198.2963,307.115 Q198.9994,307.115 199.64,307.2713 Q200.2963,307.4275 200.8588,307.7244 L200.8588,310.4431 Q200.2338,309.865 199.64,309.5994 Q199.0463,309.3181 198.4213,309.3181 Q197.0775,309.3181 196.39,310.3963 Q195.7025,311.4588 195.7025,313.5525 Q195.7025,315.6463 196.39,316.7244 Q197.0775,317.7869 198.4213,317.7869 Q199.0463,317.7869 199.64,317.5213 Q200.2338,317.24 200.8588,316.6619 L200.8588,319.3806 Z " fill="#000000"/><text fill="#000000" font-family="sans-serif" font-size="14" lengthAdjust="spacing" textLength="59" x="216.99" y="318.5867">Directed</text><line style="stroke:#181818;stroke-width:0.5;" x1="160.94" x2="300.94" y1="329.74" y2="329.74"/><text fill="#000000" font-family="sans-serif" font-size="14" lengthAdjust="spacing" textLength="130" x="165.94" y="346.7351">predicate(i) : string</text><line style="stroke:#181818;stroke-width:0.5;" x1="160.94" x2="300.94" y1="354.0369" y2="354.0369"/></g></a><!--class Movie--><a href="" target="_top" title="None" xlink:actuate="onRequest" xlink:href="" xlink:show="new" xlink:title="None" xlink:type="simple"><g id="elem_Movie"><rect codeLine="43" fill="#F1F1F1" height="129.4844" id="Movie" rx="2.5" ry="2.5" style="stroke:#181818;stroke-width:0.5;" width="166" x="393.94" y="670.27"/><ellipse cx="452.69" cy="686.27" fill="#ADD1B2" rx="11" ry="11" style="stroke:#181818;stroke-width:1.0;"/><path d="M455.6588,691.9106 Q455.0806,692.2075 454.44,692.3481 Q453.7994,692.5044 453.0963,692.5044 Q450.5963,692.5044 449.2681,690.8638 Q447.9556,689.2075 447.9556,686.0825 Q447.9556,682.9575 449.2681,681.3013 Q450.5963,679.645 453.0963,679.645 Q453.7994,679.645 454.44,679.8013 Q455.0963,679.9575 455.6588,680.2544 L455.6588,682.9731 Q455.0338,682.395 454.44,682.1294 Q453.8463,681.8481 453.2213,681.8481 Q451.8775,681.8481 451.19,682.9263 Q450.5025,683.9888 450.5025,686.0825 Q450.5025,688.1763 451.19,689.2544 Q451.8775,690.3169 453.2213,690.3169 Q453.8463,690.3169 454.44,690.0513 Q455.0338,689.77 455.6588,689.1919 L455.6588,691.9106 Z " fill="#000000"/><text fill="#000000" font-family="sans-serif" font-size="14" lengthAdjust="spacing" textLength="40" x="473.19" y="691.1167">Movie</text><line style="stroke:#181818;stroke-width:0.5;" x1="394.94" x2="558.94" y1="702.27" y2="702.27"/><text fill="#000000" font-family="sans-serif" font-size="14" lengthAdjust="spacing" textLength="122" x="399.94" y="719.2651">released : integer</text><text fill="#000000" font-family="sans-serif" font-size="14" lengthAdjust="spacing" textLength="103" x="399.94" y="735.562">id(i) : uriorcurie</text><text fill="#000000" font-family="sans-serif" font-size="14" lengthAdjust="spacing" textLength="104" x="399.94" y="751.8589">name(i) : string</text><text fill="#000000" font-family="sans-serif" font-size="14" lengthAdjust="spacing" textLength="125" x="399.94" y="768.1557">category(i) : string</text><text fill="#000000" font-family="sans-serif" font-size="14" lengthAdjust="spacing" textLength="154" x="399.94" y="784.4526">aliases(i) : string  [0..*]</text><line style="stroke:#181818;stroke-width:0.5;" x1="394.94" x2="558.94" y1="791.7544" y2="791.7544"/></g></a><!--class Character--><a href="" target="_top" title="None" xlink:actuate="onRequest" xlink:href="" xlink:show="new" xlink:title="None" xlink:type="simple"><g id="elem_Character"><rect codeLine="53" fill="#F1F1F1" height="113.1875" id="Character" rx="2.5" ry="2.5" style="stroke:#181818;stroke-width:0.5;" width="166" x="626.94" y="678.41"/><ellipse cx="672.19" cy="694.41" fill="#ADD1B2" rx="11" ry="11" style="stroke:#181818;stroke-width:1.0;"/><path d="M675.1587,700.0506 Q674.5806,700.3475 673.94,700.4881 Q673.2994,700.6444 672.5962,700.6444 Q670.0962,700.6444 668.7681,699.0038 Q667.4556,697.3475 667.4556,694.2225 Q667.4556,691.0975 668.7681,689.4413 Q670.0962,687.785 672.5962,687.785 Q673.2994,687.785 673.94,687.9413 Q674.5962,688.0975 675.1587,688.3944 L675.1587,691.1131 Q674.5337,690.535 673.94,690.2694 Q673.3462,689.9881 672.7212,689.9881 Q671.3775,689.9881 670.69,691.0663 Q670.0025,692.1288 670.0025,694.2225 Q670.0025,696.3163 670.69,697.3944 Q671.3775,698.4569 672.7212,698.4569 Q673.3462,698.4569 673.94,698.1913 Q674.5337,697.91 675.1587,697.3319 L675.1587,700.0506 Z " fill="#000000"/><text fill="#000000" font-family="sans-serif" font-size="14" lengthAdjust="spacing" textLength="67" x="692.69" y="699.2567">Character</text><line style="stroke:#181818;stroke-width:0.5;" x1="627.94" x2="791.94" y1="710.41" y2="710.41"/><text fill="#000000" font-family="sans-serif" font-size="14" lengthAdjust="spacing" textLength="103" x="632.94" y="727.4051">id(i) : uriorcurie</text><text fill="#000000" font-family="sans-serif" font-size="14" lengthAdjust="spacing" textLength="104" x="632.94" y="743.702">name(i) : string</text><text fill="#000000" font-family="sans-serif" font-size="14" lengthAdjust="spacing" textLength="125" x="632.94" y="759.9989">category(i) : string</text><text fill="#000000" font-family="sans-serif" font-size="14" lengthAdjust="spacing" textLength="154" x="632.94" y="776.2957">aliases(i) : string  [0..*]</text><line style="stroke:#181818;stroke-width:0.5;" x1="627.94" x2="791.94" y1="783.5975" y2="783.5975"/></g></a><!--link Graph to Node--><g id="link_Graph_Node"><path codeLine="27" d="M344.7182,67.0359 C336.9282,99.3559 329.24,147.59 342.94,196.3 C350.57,223.43 362.152,245.5109 377.112,268.0509 " fill="none" id="Graph-Node" style="stroke:#181818;stroke-width:1.0;"/><polygon fill="#181818" points="347.53,55.37,342.2355,60.2657,344.7182,67.0359,350.0127,62.1402,347.53,55.37" style="stroke:#181818;stroke-width:1.0;"/><polygon fill="#181818" points="380.43,273.05,378.7858,263.3394,377.665,268.8841,372.1203,267.7633,380.43,273.05" style="stroke:#181818;stroke-width:1.0;"/><text fill="#000000" font-family="sans-serif" font-size="13" lengthAdjust="spacing" textLength="39" x="343.94" y="168.7169">nodes</text><text fill="#000000" font-family="sans-serif" font-size="13" lengthAdjust="spacing" textLength="23" x="350.7257" y="262.2831">0..*</text></g><!--link Edge to Node--><g id="link_Edge_Node"><path codeLine="28" d="M473.7,196.76 C475.98,211.15 476.93,228.29 472.94,243.3 C470.26,253.39 468.7622,258.1679 463.9422,267.7679 " fill="none" id="Edge-to-Node" style="stroke:#181818;stroke-width:1.0;"/><polygon fill="#181818" points="461.25,273.13,468.863,266.8817,463.4935,268.6616,461.7136,263.2921,461.25,273.13" style="stroke:#181818;stroke-width:1.0;"/><text fill="#000000" font-family="sans-serif" font-size="13" lengthAdjust="spacing" textLength="39" x="476.94" y="239.3669">object</text><text fill="#000000" font-family="sans-serif" font-size="13" lengthAdjust="spacing" textLength="24" x="440.3347" y="262.3728">0..1</text></g><!--link Edge to Node--><g id="link_Edge_Node"><path codeLine="29" d="M434.18,196.59 C427.15,205.47 420.68,215.64 416.94,226.3 C411.79,240.95 410.5088,251.5062 411.6488,266.9662 " fill="none" id="Edge-to-Node-1" style="stroke:#181818;stroke-width:1.0;"/><polygon fill="#181818" points="412.09,272.95,415.4173,263.6802,411.7223,267.9635,407.439,264.2685,412.09,272.95" style="stroke:#181818;stroke-width:1.0;"/><text fill="#000000" font-family="sans-serif" font-size="13" lengthAdjust="spacing" textLength="46" x="417.94" y="239.3669">subject</text><text fill="#000000" font-family="sans-serif" font-size="13" lengthAdjust="spacing" textLength="24" x="385.1833" y="262.1709">0..1</text></g><!--reverse link Node to Person--><g id="link_Node_Person"><path codeLine="30" d="M358.8445,399.8598 C336.6345,423.3898 322.86,437.99 299.21,463.05 " fill="none" id="Node-backto-Person" style="stroke:#181818;stroke-width:1.0;"/><polygon fill="none" points="371.2,386.77,354.4813,395.7413,363.2078,403.9783,371.2,386.77" style="stroke:#181818;stroke-width:1.0;"/></g><!--reverse link Node to CreativeWork--><g id="link_Node_CreativeWork"><path codeLine="31" d="M442.9375,404.1939 C450.4175,433.0439 455,450.72 462.48,479.57 " fill="none" id="Node-backto-CreativeWork" style="stroke:#181818;stroke-width:1.0;"/><polygon fill="none" points="438.42,386.77,437.1296,405.6997,448.7455,402.688,438.42,386.77" style="stroke:#181818;stroke-width:1.0;"/></g><!--link ActedIn to Person--><g id="link_ActedIn_Person"><path codeLine="38" d="M561.77,362.49 C547.52,370.41 532.2,378.82 517.94,386.48 C466.14,414.31 414.0112,441.5372 364.2012,467.2572 " fill="none" id="ActedIn-to-Person" style="stroke:#181818;stroke-width:1.0;"/><polygon fill="#181818" points="358.87,470.01,368.7021,469.4349,363.3127,467.716,365.0316,462.3266,358.87,470.01" style="stroke:#181818;stroke-width:1.0;"/><text fill="#000000" font-family="sans-serif" font-size="13" lengthAdjust="spacing" textLength="46" x="456.94" y="429.5469">subject</text><text fill="#000000" font-family="sans-serif" font-size="13" lengthAdjust="spacing" textLength="24" x="366.5224" y="463.0413">0..1</text></g><!--link Directed to Person--><g id="link_Directed_Person"><path codeLine="39" d="M230.94,362.39 C230.94,389.17 230.94,422.64 230.94,457.12 " fill="none" id="Directed-to-Person" style="stroke:#181818;stroke-width:1.0;"/><polygon fill="#181818" points="230.94,463.12,234.94,454.12,230.94,458.12,226.94,454.12,230.94,463.12" style="stroke:#181818;stroke-width:1.0;"/><text fill="#000000" font-family="sans-serif" font-size="13" lengthAdjust="spacing" textLength="46" x="231.94" y="429.5469">subject</text><text fill="#000000" font-family="sans-serif" font-size="13" lengthAdjust="spacing" textLength="24" x="205.7963" y="452.4967">0..1</text></g><!--link Graph to Edge--><g id="link_Graph_Edge"><path codeLine="40" d="M381.7625,64.5756 C399.8825,85.7956 415.0233,103.5276 435.0433,126.9676 " fill="none" id="Graph-Edge" style="stroke:#181818;stroke-width:1.0;"/><polygon fill="#181818" points="373.97,55.45,374.8244,62.6103,381.7625,64.5756,380.9081,57.4153,373.97,55.45" style="stroke:#181818;stroke-width:1.0;"/><polygon fill="#181818" points="438.94,131.53,436.1365,122.0886,435.6927,127.728,430.0533,127.2842,438.94,131.53" style="stroke:#181818;stroke-width:1.0;"/><text fill="#000000" font-family="sans-serif" font-size="13" lengthAdjust="spacing" textLength="39" x="414.94" y="98.0669">edges</text><text fill="#000000" font-family="sans-serif" font-size="13" lengthAdjust="spacing" textLength="23" x="408.6009" y="120.962">0..*</text></g><!--reverse link Edge to Directed--><g id="link_Edge_Directed"><path codeLine="41" d="M405.861,207.0097 C364.251,235.9997 317.68,268.45 276.11,297.42 " fill="none" id="Edge-backto-Directed" style="stroke:#181818;stroke-width:1.0;"/><polygon fill="none" points="420.63,196.72,402.4311,202.0867,409.2909,211.9327,420.63,196.72" style="stroke:#181818;stroke-width:1.0;"/></g><!--reverse link Edge to ActedIn--><g id="link_Edge_ActedIn"><path codeLine="42" d="M509.2639,209.6484 C518.4039,219.0984 515.87,216.6 524.94,226.3 C547.11,250 571.76,277.23 590.11,297.68 " fill="none" id="Edge-backto-ActedIn" style="stroke:#181818;stroke-width:1.0;"/><polygon fill="none" points="496.75,196.71,504.9511,213.8197,513.5767,205.4771,496.75,196.71" style="stroke:#181818;stroke-width:1.0;"/></g><!--link Directed to Movie--><g id="link_Directed_Movie"><path codeLine="50" d="M159.65,361.08 C117.99,382.9 69.01,416.77 44.94,463.48 C15.27,521.08 6,557.48 44.94,609.27 C86.82,664.95 274.4068,702.6729 387.7268,720.9829 " fill="none" id="Directed-to-Movie" style="stroke:#181818;stroke-width:1.0;"/><polygon fill="#181818" points="393.65,721.94,385.4033,716.5556,388.714,721.1425,384.1272,724.4532,393.65,721.94" style="stroke:#181818;stroke-width:1.0;"/><text fill="#000000" font-family="sans-serif" font-size="13" lengthAdjust="spacing" textLength="39" x="45.94" y="540.9369">object</text><text fill="#000000" font-family="sans-serif" font-size="13" lengthAdjust="spacing" textLength="24" x="362.0566" y="717.3728">0..1</text></g><!--link ActedIn to Movie--><g id="link_ActedIn_Movie"><path codeLine="51" d="M618.75,362.42 C618.98,415.62 614.48,525.59 577.94,609.27 C568.58,630.72 558.2428,646.8465 543.5328,665.1165 " fill="none" id="ActedIn-to-Movie" style="stroke:#181818;stroke-width:1.0;"/><polygon fill="#181818" points="539.77,669.79,548.5299,665.2884,542.9057,665.8954,542.2986,660.2713,539.77,669.79" style="stroke:#181818;stroke-width:1.0;"/><text fill="#000000" font-family="sans-serif" font-size="13" lengthAdjust="spacing" textLength="39" x="614.94" y="540.9369">object</text><text fill="#000000" font-family="sans-serif" font-size="13" lengthAdjust="spacing" textLength="24" x="521.0118" y="659.3643">0..1</text></g><!--reverse link CreativeWork to Movie--><g id="link_CreativeWork_Movie"><path codeLine="52" d="M476.94,611.46 C476.94,635.3 476.94,645.22 476.94,669.88 " fill="none" id="CreativeWork-backto-Movie" style="stroke:#181818;stroke-width:1.0;"/><polygon fill="none" points="476.94,593.46,470.94,611.46,482.94,611.46,476.94,593.46" style="stroke:#181818;stroke-width:1.0;"/></g><!--reverse link CreativeWork to Character--><g id="link_CreativeWork_Character"><path codeLine="59" d="M557.1557,605.0695 C588.6257,631.6295 612.37,651.66 643.8,678.19 " fill="none" id="CreativeWork-backto-Character" style="stroke:#181818;stroke-width:1.0;"/><polygon fill="none" points="543.4,593.46,553.2859,609.6547,561.0255,600.4843,543.4,593.46" style="stroke:#181818;stroke-width:1.0;"/></g><!--link ActedIn to Character--><g id="link_ActedIn_Character"><path codeLine="60" d="M635.96,362.49 C650.03,388.69 668.84,427.37 678.94,463.48 C699.18,535.87 705.976,616.7058 708.416,672.1058 " fill="none" id="ActedIn-to-Character" style="stroke:#181818;stroke-width:1.0;"/><polygon fill="#181818" points="708.68,678.1,712.2801,668.9327,708.46,673.1048,704.2879,669.2847,708.68,678.1" style="stroke:#181818;stroke-width:1.0;"/><text fill="#000000" font-family="sans-serif" font-size="13" lengthAdjust="spacing" textLength="33" x="703.94" y="540.9369">plays</text><text fill="#000000" font-family="sans-serif" font-size="13" lengthAdjust="spacing" textLength="24" x="683.0639" y="667.3258">0..1</text></g><!--SRC=[pPHDJy9048Rl_8f9Jqe2w9M3YL5ZF4Wuc7WWc2pT0LQMtMQse8Jmtvr-R3-mbCGBSY3fpBkpypwTQQY5Sn0yauYM0Kmc-ti8hTOOnieQi7CmLg83OIIWNA0xJAUmxtGEdJ0xEE9qVYvH3hP8CNw3CY1WaHJD3W3_zdE5MXv0IHZ2XfIbaFyHe9OrOesSTp4fipZAXIB6XQNTgRpGIZZkjanFRlhzxhHizuazPEsQrC-0TP76Ih_ztmr7X58bTrVlBKgEaPmrQL41KVe0McqJbIMGA6HJHJj7vnXnqkouU7hRHLWqNJqmisHOgGm3G3gohUILkZx7D9EqOcsHv6JhYcEu3uGYLbjyjxJoivI7u8jZZ6M5p7bjjmgRvkB2DlmMT7kzEmYIQE07V0X1kWX19nyXBxcjIkpianUdNUCsNfI5FdgzOePgiHfDZ_W-Z56-PDCsiWPRXlK8G_6M7XLXKkLFDSe6gkRy2jJibVUSbJPnpn2oBFti54nJD4NfMjItves-9cFMuf9G8q-3_BzxTO9XRgmwS8slfK5NNz4KMwOgTdWfI70nQW5tUIuDDih6Jz2eE6CYaHOx5_m0]--></g></svg>